<svg xmlns="http://www.w3.org/2000/svg" viewBox="0 0 950 160"><path fill="#FFFFFF" d="M30.00,30.00 L58.00,30.00 L130.00,102.00 L130.00,130.00 L58.00,58.00 L58.00,130.00 L30.00,130.00 Z"/><path fill="#E31E24" d="M102.00,30.00 L130.00,30.00 L130.00,90.00 L102.00,62.00 Z"/><path fill="#FFFFFF" d="M178.0 131.61073825503357Q167.1275167785235 131.61073825503357 158.90604026845637 126.84563758389262Q150.68456375838926 122.08053691275168 146.08724832214764 113.7248322147651Q141.48993288590603 105.36912751677852 141.48993288590603 94.56375838926175Q141.48993288590603 83.75838926174497 146.08724832214764 75.40268456375838Q150.68456375838926 67.04697986577182 158.80536912751677 62.281879194630875Q166.9261744966443 57.51677852348993 177.39597315436242 57.51677852348993Q188.06711409395973 57.51677852348993 196.15436241610738 62.18120805369128Q204.24161073825502 66.84563758389262 208.80536912751677 75.06711409395973Q213.36912751677852 83.28859060402684 213.36912751677852 94.02684563758389V100.26845637583892H164.04026845637583Q164.24161073825502 107.04697986577182 168.1006711409396 111.00671140939598Q171.95973154362417 114.96644295302013 178.80536912751677 114.96644295302013Q183.90604026845637 114.96644295302013 187.36241610738256 112.88590604026845Q190.81879194630872 110.80536912751678 192.09395973154363 107.31543624161074H212.83221476510067Q211.5570469798658 114.42953020134229 206.65771812080538 119.93288590604027Q201.75838926174498 125.43624161073825 194.34228187919464 128.52348993288592Q186.9261744966443 131.61073825503357 178.0 131.61073825503357ZM164.1744966442953 86.44295302013423H191.8255033557047Q191.0201342281879 80.8724832214765 187.39597315436242 77.71812080536913Q183.7718120805369 74.56375838926175 178.0 74.56375838926175Q172.16107382550337 74.56375838926175 168.53691275167785 77.71812080536913Q164.91275167785236 80.8724832214765 164.1744966442953 86.44295302013423Z M238.67114093959734 130.0 216.85906040268458 59.127516778523486H241.1543624161074L246.65771812080538 81.2751677852349Q248.1342281879195 87.4496644295302 249.510067114094 94.06040268456375Q250.88590604026848 100.67114093959731 252.29530201342283 107.24832214765101Q253.83892617449666 100.67114093959731 255.41610738255036 94.06040268456375Q256.99328859060404 87.4496644295302 258.6040268456376 81.2751677852349L264.44295302013427 59.127516778523486H284.9127516778524L290.751677852349 81.2751677852349Q292.36241610738256 87.4496644295302 293.93959731543623 94.06040268456375Q295.51677852348996 100.67114093959731 297.06040268456377 107.24832214765101Q298.4026845637584 100.67114093959731 299.7114093959732 94.09395973154362Q301.02013422818794 87.51677852348993 302.496644295302 81.2751677852349L307.7986577181208 59.127516778523486H332.496644295302L310.6845637583893 130.0H286.8590604026846L279.00671140939596 103.48993288590604Q277.86577181208054 99.53020134228188 276.79194630872485 95.40268456375838Q275.71812080536915 91.2751677852349 274.7114093959732 87.11409395973155Q273.63758389261744 91.2751677852349 272.56375838926175 95.40268456375838Q271.48993288590606 99.53020134228188 270.34899328859063 103.48993288590604L262.496644295302 130.0Z M370.55033557046977 131.74496644295303Q360.751677852349 131.74496644295303 353.1677852348994 128.79194630872485Q345.5838926174497 125.83892617449665 341.0536912751678 120.33557046979865Q336.5234899328859 114.83221476510067 335.91946308724835 107.31543624161074H358.6711409395973Q359.20805369127515 111.2751677852349 362.16107382550337 113.55704697986577Q365.1140939597316 115.83892617449665 370.2147651006711 115.83892617449665Q374.97986577181206 115.83892617449665 377.66442953020135 114.16107382550337Q380.3489932885906 112.48322147651007 380.3489932885906 109.79865771812081Q380.3489932885906 105.36912751677852 371.758389261745 103.8255033557047L358.93959731543623 101.54362416107382Q348.4697986577181 99.66442953020135 343.0 94.36241610738256Q337.5302013422819 89.06040268456375 337.5302013422819 80.67114093959731Q337.5302013422819 70.20134228187919 345.9865771812081 63.92617449664429Q354.4429530201342 57.651006711409394 369.2751677852349 57.651006711409394Q384.10738255033556 57.651006711409394 392.8993288590604 64.22818791946308Q401.69127516778525 70.80536912751677 402.0268456375839 82.14765100671141H380.751677852349Q380.6845637583893 78.45637583892618 377.6979865771812 75.97315436241611Q374.71140939597313 73.48993288590604 370.08053691275165 73.48993288590604Q365.5838926174497 73.48993288590604 363.06711409395973 75.23489932885906Q360.5503355704698 76.97986577181209 360.5503355704698 79.59731543624162Q360.5503355704698 83.95973154362416 368.2013422818792 85.43624161073825L382.4295302013423 88.05369127516778Q393.3691275167785 90.06711409395973 398.6040268456376 94.76510067114094Q403.83892617449663 99.46308724832215 403.83892617449663 107.38255033557047Q403.83892617449663 114.63087248322148 399.64429530201346 120.13422818791946Q395.44966442953023 125.63758389261744 387.96644295302013 128.69127516778525Q380.48322147651004 131.74496644295303 370.55033557046977 131.74496644295303Z"/><path fill="#FFFFFF" d="M426.79194630872485 130.0V30.0H462.6308724832215Q478.2684563758389 30.0 487.4295302013423 38.15436241610738Q496.59060402684565 46.308724832214764 496.59060402684565 60.335570469798654Q496.59060402684565 69.66442953020135 492.3288590604027 76.47651006711409Q488.06711409395973 83.28859060402684 480.31543624161077 87.01342281879194Q472.56375838926175 90.73825503355704 462.09395973154363 90.73825503355704H438.8724832214765V130.0ZM438.8724832214765 80.0H462.2281879194631Q472.6308724832215 80.0 478.6375838926175 74.73154362416108Q484.64429530201346 69.46308724832215 484.64429530201346 60.335570469798654Q484.64429530201346 51.20805369127517 478.6375838926175 45.97315436241611Q472.6308724832215 40.73825503355705 462.2281879194631 40.73825503355705H438.8724832214765Z M520.8187919463087 30.0V130.0H509.4093959731544V30.0Z M559.3422818791946 131.0738255033557Q548.8053691275168 131.0738255033557 541.7248322147651 125.63758389261744Q534.6442953020135 120.20134228187919 534.6442953020135 109.59731543624162Q534.6442953020135 103.48993288590604 537.0268456375838 99.66442953020135Q539.4093959731543 95.83892617449663 543.4026845637584 93.65771812080536Q547.3959731543624 91.47651006711409 552.4630872483222 90.33557046979865Q557.5302013422819 89.19463087248323 562.8322147651006 88.52348993288591Q569.6107382550335 87.58389261744966 573.5033557046979 87.11409395973155Q577.3959731543624 86.64429530201343 579.0402684563758 85.57046979865773Q580.6845637583892 84.49664429530202 580.6845637583892 81.81208053691276V81.14093959731544Q580.6845637583892 75.36912751677852 576.5570469798657 71.61073825503355Q572.4295302013422 67.85234899328859 564.9798657718121 67.85234899328859Q557.5973154362416 67.85234899328859 552.8657718120805 71.44295302013423Q548.1342281879195 75.03355704697987 547.7315436241611 80.33557046979865H536.1208053691275Q536.4563758389262 73.8255033557047 540.1476510067114 68.75838926174497Q543.8389261744966 63.691275167785236 550.2147651006711 60.738255033557046Q556.5906040268457 57.785234899328856 564.9798657718121 57.785234899328856Q577.3959731543624 57.785234899328856 584.6778523489933 64.19463087248322Q591.9597315436241 70.60402684563758 591.9597315436241 81.14093959731544V130.0H580.6845637583892V119.93288590604027H580.4161073825503Q579.1409395973154 122.48322147651007 576.6577181208054 125.06711409395973Q574.1744966442952 127.6510067114094 569.979865771812 129.36241610738256Q565.7852348993289 131.0738255033557 559.3422818791946 131.0738255033557ZM560.9530201342282 120.87248322147651Q567.9328859060403 120.87248322147651 572.2953020134228 118.35570469798658Q576.6577181208054 115.83892617449665 578.6711409395973 111.81208053691276Q580.6845637583892 107.78523489932886 580.6845637583892 103.15436241610738V94.29530201342283Q579.4093959731543 95.50335570469798 573.9060402684563 96.47651006711409Q568.4026845637584 97.4496644295302 562.2953020134228 98.32214765100672Q558.2013422818792 98.85906040268456 554.5436241610738 100.16778523489933Q550.8859060402684 101.47651006711409 548.6040268456376 103.85906040268456Q546.3221476510067 106.24161073825503 546.3221476510067 110.26845637583892Q546.3221476510067 115.23489932885906 550.2483221476509 118.05369127516778Q554.1744966442952 120.87248322147651 560.9530201342282 120.87248322147651Z M639.8120805369127 59.127516778523486V68.9261744966443H625.4496644295302V112.81879194630872Q625.4496644295302 116.91275167785236 627.1610738255033 118.55704697986577Q628.8724832214765 120.20134228187919 633.234899328859 120.20134228187919H639.8120805369127V130.0H632.1610738255033Q614.0402684563758 130.0 614.0402684563758 114.02684563758389V68.9261744966443H601.4228187919463V59.127516778523486H614.0402684563758V39.79865771812081H625.4496644295302V59.127516778523486Z M682.5637583892617 59.127516778523486V68.9261744966443H668.2013422818791V130.0H656.7919463087247V68.9261744966443H644.1744966442952V59.127516778523486H656.7919463087247V46.51006711409396Q656.7919463087247 38.92617449664429 661.8255033557045 34.46308724832215Q666.8590604026845 30.0 675.4496644295301 30.0H682.5637583892617V39.79865771812081H676.5234899328858Q672.0268456375838 39.79865771812081 670.1140939597315 41.74496644295302Q668.2013422818791 43.691275167785236 668.2013422818791 48.255033557046985V59.127516778523486Z M722.9664429530201 131.61073825503357Q713.1677852348993 131.61073825503357 705.7516778523488 126.87919463087249Q698.3355704697985 122.14765100671141 694.208053691275 113.8255033557047Q690.0805369127515 105.50335570469798 690.0805369127515 94.69798657718121Q690.0805369127515 83.8255033557047 694.208053691275 75.43624161073825Q698.3355704697985 67.04697986577182 705.7516778523488 62.281879194630875Q713.1677852348993 57.51677852348993 722.9664429530201 57.51677852348993Q732.8322147651006 57.51677852348993 740.214765100671 62.281879194630875Q747.5973154362415 67.04697986577182 751.724832214765 75.43624161073825Q755.8523489932885 83.8255033557047 755.8523489932885 94.69798657718121Q755.8523489932885 105.50335570469798 751.724832214765 113.8255033557047Q747.5973154362415 122.14765100671141 740.214765100671 126.87919463087249Q732.8322147651006 131.61073825503357 722.9664429530201 131.61073825503357ZM722.9664429530201 121.2751677852349Q733.0335570469798 121.2751677852349 738.6711409395973 113.99328859060402Q744.3087248322147 106.71140939597315 744.3087248322147 94.69798657718121Q744.3087248322147 82.5503355704698 738.6375838926174 75.20134228187919Q732.9664429530201 67.85234899328859 722.9664429530201 67.85234899328859Q712.9664429530201 67.85234899328859 707.2953020134228 75.16778523489933Q701.6241610738255 82.48322147651007 701.6241610738255 94.69798657718121Q701.6241610738255 106.7785234899329 707.2617449664428 114.0268456375839Q712.8993288590603 121.2751677852349 722.9664429530201 121.2751677852349Z M769.1409395973154 130.0V59.127516778523486H780.0134228187919V70.26845637583892H780.2818791946308Q782.228187919463 64.76510067114094 786.4563758389261 61.40939597315436Q790.6845637583892 58.05369127516778 797.3288590604027 58.05369127516778Q798.8724832214765 58.05369127516778 800.1812080536913 58.18791946308725Q801.489932885906 58.322147651006716 802.1610738255033 58.45637583892618V69.86577181208054Q801.489932885906 69.66442953020135 799.5771812080536 69.36241610738256Q797.6644295302013 69.06040268456375 795.1812080536912 69.06040268456375Q789.2751677852349 69.06040268456375 784.9127516778524 73.2214765100671Q780.5503355704698 77.38255033557047 780.5503355704698 86.3758389261745V130.0Z M813.4362416107382 130.0V59.127516778523486H824.5771812080536V70.60402684563758Q827.9328859060402 64.36241610738254 833.5033557046979 61.0738255033557Q839.0738255033556 57.785234899328856 845.5838926174496 57.785234899328856Q852.8322147651006 57.785234899328856 858.2684563758389 61.47651006711409Q863.7046979865771 65.16778523489933 865.9194630872482 70.53691275167785Q868.8053691275167 65.1006711409396 874.5771812080536 61.442953020134226Q880.3489932885905 57.785234899328856 888.2684563758388 57.785234899328856Q894.7785234899328 57.785234899328856 900.1140939597315 60.604026845637584Q905.4496644295301 63.42281879194631 908.6375838926174 69.1275167785235Q911.8255033557047 74.83221476510067 911.8255033557047 83.55704697986577V130.0H900.4161073825503V83.55704697986577Q900.4161073825503 75.30201342281879 895.7852348993288 71.77852348993288Q891.1543624161073 68.25503355704697 885.0469798657717 68.25503355704697Q877.2617449664428 68.25503355704697 872.7986577181207 72.98657718120805Q868.3355704697985 77.71812080536913 868.3355704697985 84.8993288590604V130.0H856.9261744966442V82.3489932885906Q856.9261744966442 75.97315436241611 852.6644295302012 72.11409395973155Q848.4026845637583 68.25503355704697 841.9597315436241 68.25503355704697Q837.5302013422818 68.25503355704697 833.6040268456375 70.33557046979865Q829.6778523489932 72.41610738255034 827.2617449664428 76.54362416107382Q824.8456375838925 80.67114093959731 824.8456375838925 86.7785234899329V130.0Z"/></svg>